<svg width="53.763000000000005" height="53.763000000000005" xmlns="http://www.w3.org/2000/svg">

 <g>
  <title>background</title>
  <rect fill="none" id="canvas_background" height="402" width="582" y="-1" x="-1"/>
 </g>
 <g>
  <title>Layer 1</title>
  <circle fill="#5d3796" id="svg_1" r="26.881001" cy="26.881499" cx="26.881499"/>
  <path stroke="null" id="svg_3" fill="#FFFFFF" d="m38.258534,14.733938c0.883209,1.322708 1.323095,2.906006 1.323095,4.748658c0,1.899463 -0.445614,3.42595 -1.335696,4.57946c-0.498309,0.647151 -1.231452,1.238727 -2.201722,1.773491c1.47316,0.576755 2.584331,1.491906 3.333512,2.742983c0.749181,1.253547 1.123772,2.772623 1.123772,4.558464c0,1.843887 -0.428431,3.497581 -1.284147,4.961081c-0.546421,0.970727 -1.22687,1.787076 -2.043638,2.447813c-0.922157,0.759538 -2.008126,1.280717 -3.261343,1.562302c-1.252072,0.28282 -2.610678,0.422377 -4.078111,0.422377l-13.001843,0l0,-31.110191l13.94462,0c3.52138,0.056811 6.014068,1.16092 7.481501,3.313563zm-15.668652,2.089656l0,6.859309l7.014122,0c1.253217,0 2.269308,-0.256884 3.05171,-0.770653c0.781256,-0.513769 1.171884,-1.425215 1.171884,-2.733102c0,-1.44868 -0.516637,-2.405822 -1.551057,-2.87019c-0.891228,-0.323576 -2.028746,-0.485363 -3.410263,-0.485363l-6.276396,0zm0,12.009349l0,8.295639l7.006103,0c1.250926,0 2.224632,-0.182783 2.922264,-0.54835c1.264673,-0.675557 1.895863,-1.969859 1.895863,-3.884143c0,-1.617878 -0.611717,-2.729397 -1.837441,-3.334558c-0.683885,-0.337161 -1.644991,-0.513769 -2.884462,-0.528589l-7.102328,0z"/>
 </g>
</svg>