<svg width="512" height="512" xmlns="http://www.w3.org/2000/svg">

 <g>
  <title>background</title>
  <rect fill="none" id="canvas_background" height="402" width="582" y="-1" x="-1"/>
 </g>
 <g>
  <title>Layer 1</title>
  <path fill="#379ad6" id="path2989" d="m512,256c0,141.3849 -114.61511,256 -256,256c-141.3849,0 -256,-114.6151 -256,-256c0,-141.38489 114.6151,-256 256,-256c141.38489,0 256,114.61511 256,256z"/>
  <polygon fill="#ffffff" fill-rule="evenodd" points="348.09563660621643,413.251256942749 368.7227728366852,189.81639671325684 148.72275757789612,189.81639671325684 169.34655213356018,413.251256942749 258.72208619117737,437.3172359466553 " id="polygon3962"/>
  <polygon fill="#ffffff" fill-rule="evenodd" points="331.24968934059143,398.70258140563965 347.94353699684143,207.91446495056152 258.72075867652893,207.91446495056152 258.72075867652893,418.1237850189209 258.92241883277893,418.1780757904053 " id="polygon3968"/>
  <path stroke="null" fill="#ffffff" fill-rule="evenodd" id="path4016" d="m151.696192,160.285049l55.199605,0l0,-23.829006l-31.541846,0l0,-23.862687l31.541846,0l0,-26.111911l-55.199605,0l0,73.803604zm78.789833,-47.690491c7.385286,8.151779 11.236398,12.052751 21.91843,23.844653c-6.242803,0 -21.91843,0.025301 -21.91843,0.022789l0,23.822995l55.203962,0l0,-23.828952l-22.050222,-23.862687l22.050222,0l0,-26.111911l-55.203962,0c0,0 0,13.10584 0,26.113113zm133.448141,-26.113113l-55.207229,0c0,0 0,13.10584 0,26.113113c7.385302,8.151779 11.238577,12.052751 21.920625,23.844653c-6.240625,0 -21.920625,0.025301 -21.920625,0.022789l0,23.822995l55.207229,0l0,-23.828952l-22.051295,-23.862687l22.051295,0l0,-26.111911z"/>
  <path fill="#379ad6" id="path4169" d="m188.824613,234.921358l4,27.25l69.5,-0.5l-67,28.25l1.75,27l95,0l-2.25,35.5l-30.5,9.25l-31,-8.5l-1.75,-21.25l-27.25,0l3.5,41.75l55.75,16.25l56.75,-15.75l7,-84.25l-64.25,0l66.75,-28.25l2,-27l-138,0.25z"/>
 </g>
</svg>