<svg width="122" height="38.54318" xmlns="http://www.w3.org/2000/svg">

 <TITLE xmlns="http://www.w3.org/1999/xhtml">Link Editable</TITLE>
 <DESC xmlns="http://www.w3.org/1999/xhtml"/>
 <g>
  <title>background</title>
  <rect fill="none" id="canvas_background" height="40.54318" width="124" y="-1" x="-1"/>
 </g>
 <g>
  <title>Layer 1</title>
  <g id="svg_3">
   <path id="svg_148" stroke-width="1.000015" fill-rule="nonzero" fill="#ffffff" d="m40.189537,33.464701l0,-23.04499l1.25,0l0,3.62499c0.14759,-0.16073 0.28393,-0.33148 0.40798,-0.511c1.04401,-2.166 3.24601,-3.533 5.65003,-3.50601c2.85,-0.08499 5.16598,0.97 6.52699,3.50601c1.75731,3.1967 1.85863,7.04626 0.27198,10.33101c-1.26796,2.84198 -4.39998,4.25498 -7.75299,3.736c-2.12024,-0.18025 -4.00436,-1.42354 -5.00401,-3.30201l0,9.165l-1.34998,0.001zm1.25,-14.893l0.28,2.70599c0.49401,3.08001 2.31499,4.9 5.17399,5.24201c2.76863,0.4552 5.47314,-1.10915 6.45901,-3.73601c1.11202,-2.64999 1.03001,-5.64998 -0.21999,-8.23799c-1.04832,-2.34605 -3.52387,-3.71397 -6.06801,-3.353c-2.38258,0.17334 -4.39403,1.83645 -5.01202,4.144c-0.26619,1.06535 -0.47084,2.14514 -0.61298,3.234l0,0.001zm39.49799,3.132c-0.39208,3.35604 -3.20855,5.90313 -6.58699,5.95699c-5.24201,0.26402 -7.70199,-3.21699 -8.093,-7.23398c-0.27191,-2.18146 0.08221,-4.39522 1.02101,-6.383c1.34078,-2.79822 4.33933,-4.40592 7.41199,-3.97402c2.91924,0.24815 5.35255,2.33553 6.04198,5.18301c0.26631,1.26484 0.46227,2.54347 0.58701,3.82999l-13.76698,0c-0.25501,3.64201 1.70201,6.57 4.47598,7.27601c3.45501,0.85001 6.408,-0.64699 7.48001,-3.932c0.238,-0.84299 0.672,-0.96199 1.43799,-0.723l-0.009,0zm-13.39501,-3.78701l12.31404,0c-0.07702,-3.87998 -2.49302,-6.7 -5.77,-6.73198c-3.70003,-0.06001 -6.38302,2.647 -6.54404,6.73198zm15.94002,3.872l1.20702,0c0.0904,1.81297 1.18763,3.42293 2.84198,4.17002c2.06398,0.92884 4.43879,0.86626 6.451,-0.17c1.10908,-0.49939 1.78867,-1.63779 1.702,-2.85102c0.06401,-1.1737 -0.65857,-2.24737 -1.77002,-2.62998c-1.32797,-0.49401 -2.73998,-0.76601 -4.09298,-1.20001c-1.40789,-0.40083 -2.78457,-0.90418 -4.11899,-1.506c-2.17999,-1.064 -2.315,-5.208 0.15301,-6.52001c2.56767,-1.4489 5.69488,-1.4971 8.30597,-0.12798c1.594,0.87999 2.47501,2.65699 2.21302,4.45999l-1.03501,0c0,-0.04999 -0.09399,-0.09399 -0.09399,-0.145c-0.12802,-3.3 -2.90199,-4.33201 -5.88001,-4.04199c-0.90001,0.09998 -1.75301,0.37199 -2.55299,0.77398c-0.98564,0.45013 -1.57921,1.474 -1.48003,2.553c0.0021,1.07964 0.68383,2.04098 1.70201,2.4c1.30001,0.47701 2.68001,0.78301 4.025,1.157l3.25001,0.85001c1.51226,0.49637 2.56153,1.8742 2.63801,3.46399c0.25997,1.745 -0.63,3.46001 -2.20402,4.25501c-2.84198,1.60799 -7.523,1.183 -9.608,-0.85001c-1.06698,-1.07299 -1.66199,-2.53 -1.64998,-4.04199l-0.00301,0.00099zm28.77999,-6.374l-1.13197,0c0,-0.15299 -0.06001,-0.29999 -0.07702,-0.41698c-0.03727,-1.74883 -1.29414,-3.23262 -3.013,-3.55702c-1.57322,-0.45122 -3.25142,-0.37037 -4.77398,0.23001c-1.23653,0.35387 -2.09225,1.47989 -2.10201,2.766c-0.04444,1.26756 0.80902,2.39145 2.042,2.689l5.17399,1.32801c0.55954,0.13418 1.11054,0.30182 1.65001,0.50199c1.64997,0.6 2.77001,2.132 2.81998,3.883c0.05066,1.75433 -0.98229,3.35936 -2.59998,4.04c-2.42825,1.10302 -5.20905,1.13098 -7.659,0.077c-2.04075,-0.87998 -3.31761,-2.93774 -3.2,-5.157l1.106,0c0.41599,2.00499 1.79298,3.67501 3.68198,4.46499c1.889,0.79001 4.04602,0.59601 5.76401,-0.51599c1.05255,-0.54735 1.69056,-1.65699 1.63399,-2.84201c0.05271,-1.17453 -0.68055,-2.24135 -1.796,-2.61299c-1.32797,-0.49401 -2.73998,-0.75701 -4.09298,-1.19999c-1.41579,-0.39467 -2.80083,-0.89234 -4.14402,-1.48901c-2.12799,-1.047 -2.29797,-5.157 0.12802,-6.46799c2.60231,-1.51139 5.80666,-1.54705 8.442,-0.09402c1.51409,0.90363 2.35184,2.61603 2.136,4.366l0.01198,0.007zm-74.12999,11.83001c-0.92213,0.3487 -1.95949,-0.04572 -2.41699,-0.919l-4.40002,-6.085l-0.63797,-0.85001l-5.10601,6.94401c-0.43053,0.8354 -1.41419,1.22151 -2.29802,0.90201l6.57803,-8.825l-6.12003,-7.97402c0.90801,-0.32798 1.92001,0.028 2.425,0.85001l4.56001,6.16l4.58698,-6.136c0.43404,-0.82165 1.41491,-1.18759 2.281,-0.851l-2.37499,3.15099l-3.21697,4.18702c-0.18059,0.16126 -0.28385,0.39188 -0.28385,0.634c0,0.2421 0.10326,0.47272 0.28385,0.63398l6.12697,8.17801l0.01301,0zm27.92999,-16.892l0,1.19999c-1.74057,-0.11415 -3.44814,0.51377 -4.70012,1.72838c-1.25194,1.2146 -1.93127,2.90238 -1.86985,4.64564q0,4.20398 0,8.40799l0,0.95299l-1.217,0l0,-16.85999l1.19999,0l0,3.45499c1.47197,-2.51999 3.74401,-3.45499 6.59499,-3.52299l-0.00801,-0.007zm-58.54,7.94899l0.53601,-2.647c1.47201,-5.23399 7.472,-7.41199 11.59999,-4.17c2.417,1.89801 3.02003,4.58701 2.902,7.617l-13.61698,0c-0.22,5.41201 3.68499,8.68 8.68,7.01201c1.646,-0.6 2.88498,-1.968 3.293,-3.66801c0.26397,-0.84999 0.69999,-0.996 1.49799,-0.74999c-0.26966,2.09923 -1.48647,3.95913 -3.302,5.047c-3.03688,1.66083 -6.79741,1.18021 -9.319,-1.191c-1.21601,-1.367 -1.95,-3.095 -2.09301,-4.92001c0,-0.29999 -0.09999,-0.57999 -0.16999,-0.84999q-0.00999,-0.75701 -0.00999,-1.48001l0.00198,0zm1.43799,-0.366l12.31404,0c-0.07702,-3.923 -2.55303,-6.70599 -5.85503,-6.73199c-3.676,-0.05001 -6.306,2.67199 -6.46797,6.715l0.00896,0.01699z"/>
  </g>
  <g id="svg_150">
   <path id="svg_149" stroke-width="1.000015" fill-rule="nonzero" fill="#ffffff" d="m41.00311,33.4647l0,-23.04499l1.25,0l0,3.62499c0.14759,-0.16073 0.28393,-0.33148 0.40798,-0.511c1.04401,-2.166 3.24601,-3.533 5.65003,-3.50601c2.85,-0.08499 5.16598,0.97 6.52699,3.50601c1.75731,3.1967 1.85863,7.04626 0.27198,10.33101c-1.26796,2.84198 -4.39998,4.25498 -7.75299,3.736c-2.12024,-0.18025 -4.00436,-1.42354 -5.00401,-3.30201l0,9.165l-1.34998,0.001zm1.25,-14.893l0.28,2.70599c0.49401,3.08001 2.31499,4.9 5.17399,5.24201c2.76863,0.4552 5.47314,-1.10915 6.45901,-3.73601c1.11202,-2.64999 1.03001,-5.64998 -0.21999,-8.23799c-1.04832,-2.34605 -3.52387,-3.71397 -6.06801,-3.353c-2.38258,0.17334 -4.39403,1.83645 -5.01202,4.144c-0.26619,1.06535 -0.47084,2.14514 -0.61298,3.234l0,0.001zm39.49799,3.132c-0.39208,3.35604 -3.20855,5.90313 -6.58699,5.95699c-5.24201,0.26402 -7.70199,-3.21699 -8.093,-7.23398c-0.27191,-2.18146 0.08221,-4.39522 1.02101,-6.383c1.34078,-2.79822 4.33933,-4.40592 7.41199,-3.97402c2.91924,0.24815 5.35255,2.33553 6.04198,5.18301c0.26631,1.26484 0.46227,2.54347 0.58701,3.82999l-13.76698,0c-0.25501,3.64201 1.70201,6.57 4.47598,7.27601c3.45501,0.85001 6.408,-0.64699 7.48001,-3.932c0.238,-0.84299 0.672,-0.96199 1.43799,-0.723l-0.009,0zm-13.39501,-3.78701l12.31404,0c-0.07702,-3.87998 -2.49302,-6.7 -5.77,-6.73198c-3.70003,-0.06001 -6.38302,2.647 -6.54404,6.73198zm15.94002,3.872l1.20702,0c0.0904,1.81297 1.18763,3.42293 2.84198,4.17002c2.06398,0.92884 4.43879,0.86626 6.451,-0.17c1.10908,-0.49939 1.78867,-1.63779 1.702,-2.85102c0.06401,-1.1737 -0.65857,-2.24737 -1.77002,-2.62998c-1.32797,-0.49401 -2.73998,-0.76601 -4.09298,-1.20001c-1.40789,-0.40083 -2.78457,-0.90418 -4.11899,-1.506c-2.17999,-1.064 -2.315,-5.208 0.15301,-6.52001c2.56767,-1.4489 5.69488,-1.4971 8.30597,-0.12798c1.594,0.87999 2.47501,2.65699 2.21302,4.45999l-1.03501,0c0,-0.04999 -0.09399,-0.09399 -0.09399,-0.145c-0.12802,-3.3 -2.90199,-4.33201 -5.88001,-4.04199c-0.90001,0.09998 -1.75301,0.37199 -2.55299,0.77398c-0.98564,0.45013 -1.57921,1.474 -1.48003,2.553c0.0021,1.07964 0.68383,2.04098 1.70201,2.4c1.30001,0.47701 2.68001,0.78301 4.025,1.157l3.25001,0.85001c1.51226,0.49637 2.56153,1.8742 2.63801,3.46399c0.25997,1.745 -0.63,3.46001 -2.20402,4.25501c-2.84198,1.60799 -7.523,1.183 -9.608,-0.85001c-1.06698,-1.07299 -1.66199,-2.53 -1.64998,-4.04199l-0.00301,0.00099zm28.77999,-6.374l-1.13197,0c0,-0.15299 -0.06001,-0.29999 -0.07702,-0.41698c-0.03727,-1.74883 -1.29414,-3.23262 -3.013,-3.55702c-1.57322,-0.45122 -3.25142,-0.37037 -4.77398,0.23001c-1.23653,0.35387 -2.09225,1.47989 -2.10201,2.766c-0.04444,1.26756 0.80902,2.39145 2.042,2.689l5.17399,1.32801c0.55954,0.13418 1.11054,0.30182 1.65001,0.50199c1.64997,0.6 2.77001,2.132 2.81998,3.883c0.05066,1.75433 -0.98229,3.35936 -2.59998,4.04c-2.42825,1.10302 -5.20905,1.13098 -7.659,0.077c-2.04075,-0.87998 -3.31761,-2.93774 -3.2,-5.157l1.106,0c0.41599,2.00499 1.79298,3.67501 3.68198,4.46499c1.889,0.79001 4.04602,0.59601 5.76401,-0.51599c1.05255,-0.54735 1.69056,-1.65699 1.63399,-2.84201c0.05271,-1.17453 -0.68055,-2.24135 -1.796,-2.61299c-1.32797,-0.49401 -2.73998,-0.75701 -4.09298,-1.19999c-1.41579,-0.39467 -2.80083,-0.89234 -4.14402,-1.48901c-2.12799,-1.047 -2.29797,-5.157 0.12802,-6.46799c2.60231,-1.51139 5.80666,-1.54705 8.442,-0.09402c1.51409,0.90363 2.35184,2.61603 2.136,4.366l0.01198,0.007zm-74.12999,11.83001c-0.92213,0.3487 -1.95949,-0.04572 -2.41699,-0.919l-4.40002,-6.085l-0.63797,-0.85001l-5.10601,6.94401c-0.43053,0.8354 -1.41419,1.22151 -2.29802,0.90201l6.57803,-8.825l-6.12003,-7.97402c0.90801,-0.32798 1.92001,0.028 2.425,0.85001l4.56001,6.16l4.58698,-6.136c0.43404,-0.82165 1.41491,-1.18759 2.281,-0.851l-2.37499,3.15099l-3.21697,4.18702c-0.18059,0.16126 -0.28385,0.39188 -0.28385,0.634c0,0.2421 0.10326,0.47272 0.28385,0.63398l6.12697,8.17801l0.01301,0zm27.92999,-16.892l0,1.19999c-1.74057,-0.11415 -3.44814,0.51377 -4.70012,1.72838c-1.25194,1.2146 -1.93127,2.90238 -1.86985,4.64564q0,4.20398 0,8.40799l0,0.95299l-1.217,0l0,-16.85999l1.19999,0l0,3.45499c1.47197,-2.51999 3.74401,-3.45499 6.59499,-3.52299l-0.00801,-0.007zm-58.54,7.94899l0.53601,-2.647c1.47201,-5.23399 7.472,-7.41199 11.59999,-4.17c2.417,1.89801 3.02003,4.58701 2.902,7.617l-13.61698,0c-0.22,5.41201 3.68499,8.68 8.68,7.01201c1.646,-0.6 2.88498,-1.968 3.293,-3.66801c0.26397,-0.84999 0.69999,-0.996 1.49799,-0.74999c-0.26966,2.09923 -1.48647,3.95913 -3.302,5.047c-3.03688,1.66083 -6.79741,1.18021 -9.319,-1.191c-1.21601,-1.367 -1.95,-3.095 -2.09301,-4.92001c0,-0.29999 -0.09999,-0.57999 -0.16999,-0.84999q-0.00999,-0.75701 -0.00999,-1.48001l0.00198,0zm1.43799,-0.366l12.31404,0c-0.07702,-3.923 -2.55303,-6.70599 -5.85503,-6.73199c-3.676,-0.05001 -6.306,2.67199 -6.46797,6.715l0.00896,0.01699z"/>
  </g>
  <g id="svg_152">
   <path id="svg_151" stroke-width="1.000015" fill-rule="nonzero" fill="#ffffff" d="m39.37597,32.65113l0,-23.04499l1.25,0l0,3.62499c0.14759,-0.16073 0.28393,-0.33148 0.40798,-0.511c1.04401,-2.166 3.24601,-3.533 5.65003,-3.50601c2.85,-0.08499 5.16598,0.97 6.52699,3.50601c1.75731,3.1967 1.85863,7.04626 0.27198,10.33101c-1.26796,2.84198 -4.39998,4.25498 -7.75299,3.736c-2.12024,-0.18025 -4.00436,-1.42354 -5.00401,-3.30201l0,9.165l-1.34998,0.001zm1.25,-14.893l0.28,2.70599c0.49401,3.08001 2.31499,4.9 5.17399,5.24201c2.76863,0.4552 5.47314,-1.10915 6.45901,-3.73601c1.11202,-2.64999 1.03001,-5.64998 -0.21999,-8.23799c-1.04832,-2.34605 -3.52387,-3.71397 -6.06801,-3.353c-2.38258,0.17334 -4.39403,1.83645 -5.01202,4.144c-0.26619,1.06535 -0.47084,2.14514 -0.61298,3.234l0,0.001zm39.49799,3.132c-0.39208,3.35604 -3.20855,5.90313 -6.58699,5.95699c-5.24201,0.26402 -7.70199,-3.21699 -8.093,-7.23398c-0.27191,-2.18146 0.08221,-4.39522 1.02101,-6.383c1.34078,-2.79822 4.33933,-4.40592 7.41199,-3.97402c2.91924,0.24815 5.35255,2.33553 6.04198,5.18301c0.26631,1.26484 0.46227,2.54347 0.58701,3.82999l-13.76698,0c-0.25501,3.64201 1.70201,6.57 4.47598,7.27601c3.45501,0.85001 6.408,-0.64699 7.48001,-3.932c0.238,-0.84299 0.672,-0.96199 1.43799,-0.723l-0.009,0zm-13.39501,-3.78701l12.31404,0c-0.07702,-3.87998 -2.49302,-6.7 -5.77,-6.73198c-3.70003,-0.06001 -6.38302,2.647 -6.54404,6.73198zm15.94002,3.872l1.20702,0c0.0904,1.81297 1.18763,3.42293 2.84198,4.17002c2.06398,0.92884 4.43879,0.86626 6.451,-0.17c1.10908,-0.49939 1.78867,-1.63779 1.702,-2.85102c0.06401,-1.1737 -0.65857,-2.24737 -1.77002,-2.62998c-1.32797,-0.49401 -2.73998,-0.76601 -4.09298,-1.20001c-1.40789,-0.40083 -2.78457,-0.90418 -4.11899,-1.506c-2.17999,-1.064 -2.315,-5.208 0.15301,-6.52001c2.56767,-1.4489 5.69488,-1.4971 8.30597,-0.12798c1.594,0.87999 2.47501,2.65699 2.21302,4.45999l-1.03501,0c0,-0.04999 -0.09399,-0.09399 -0.09399,-0.145c-0.12802,-3.3 -2.90199,-4.33201 -5.88001,-4.04199c-0.90001,0.09998 -1.75301,0.37199 -2.55299,0.77398c-0.98564,0.45013 -1.57921,1.474 -1.48003,2.553c0.0021,1.07964 0.68383,2.04098 1.70201,2.4c1.30001,0.47701 2.68001,0.78301 4.025,1.157l3.25001,0.85001c1.51226,0.49637 2.56153,1.8742 2.63801,3.46399c0.25997,1.745 -0.63,3.46001 -2.20402,4.25501c-2.84198,1.60799 -7.523,1.183 -9.608,-0.85001c-1.06698,-1.07299 -1.66199,-2.53 -1.64998,-4.04199l-0.00301,0.00099zm28.77999,-6.374l-1.13197,0c0,-0.15299 -0.06001,-0.29999 -0.07702,-0.41698c-0.03727,-1.74883 -1.29414,-3.23262 -3.013,-3.55702c-1.57322,-0.45122 -3.25142,-0.37037 -4.77398,0.23001c-1.23653,0.35387 -2.09225,1.47989 -2.10201,2.766c-0.04444,1.26756 0.80902,2.39145 2.042,2.689l5.17399,1.32801c0.55954,0.13418 1.11054,0.30182 1.65001,0.50199c1.64997,0.6 2.77001,2.132 2.81998,3.883c0.05066,1.75433 -0.98229,3.35936 -2.59998,4.04c-2.42825,1.10302 -5.20905,1.13098 -7.659,0.077c-2.04075,-0.87998 -3.31761,-2.93774 -3.2,-5.157l1.106,0c0.41599,2.00499 1.79298,3.67501 3.68198,4.46499c1.889,0.79001 4.04602,0.59601 5.76401,-0.51599c1.05255,-0.54735 1.69056,-1.65699 1.63399,-2.84201c0.05271,-1.17453 -0.68055,-2.24135 -1.796,-2.61299c-1.32797,-0.49401 -2.73998,-0.75701 -4.09298,-1.19999c-1.41579,-0.39467 -2.80083,-0.89234 -4.14402,-1.48901c-2.12799,-1.047 -2.29797,-5.157 0.12802,-6.46799c2.60231,-1.51139 5.80666,-1.54705 8.442,-0.09402c1.51409,0.90363 2.35184,2.61603 2.136,4.366l0.01198,0.007zm-74.12999,11.83001c-0.92213,0.3487 -1.95949,-0.04572 -2.41699,-0.919l-4.40002,-6.085l-0.63797,-0.85001l-5.10601,6.94401c-0.43053,0.8354 -1.41419,1.22151 -2.29802,0.90201l6.57803,-8.825l-6.12003,-7.97402c0.90801,-0.32798 1.92001,0.028 2.425,0.85001l4.56001,6.16l4.58698,-6.136c0.43404,-0.82165 1.41491,-1.18759 2.281,-0.851l-2.37499,3.15099l-3.21697,4.18702c-0.18059,0.16126 -0.28385,0.39188 -0.28385,0.634c0,0.2421 0.10326,0.47272 0.28385,0.63398l6.12697,8.17801l0.01301,0zm27.92999,-16.892l0,1.19999c-1.74057,-0.11415 -3.44814,0.51377 -4.70012,1.72838c-1.25194,1.2146 -1.93127,2.90238 -1.86985,4.64564q0,4.20398 0,8.40799l0,0.95299l-1.217,0l0,-16.85999l1.19999,0l0,3.45499c1.47197,-2.51999 3.74401,-3.45499 6.59499,-3.52299l-0.00801,-0.007zm-58.54,7.94899l0.53601,-2.647c1.47201,-5.23399 7.472,-7.41199 11.59999,-4.17c2.417,1.89801 3.02003,4.58701 2.902,7.617l-13.61698,0c-0.22,5.41201 3.68499,8.68 8.68,7.01201c1.646,-0.6 2.88498,-1.968 3.293,-3.66801c0.26397,-0.84999 0.69999,-0.996 1.49799,-0.74999c-0.26966,2.09923 -1.48647,3.95913 -3.302,5.047c-3.03688,1.66083 -6.79741,1.18021 -9.319,-1.191c-1.21601,-1.367 -1.95,-3.095 -2.09301,-4.92001c0,-0.29999 -0.09999,-0.57999 -0.16999,-0.84999q-0.00999,-0.75701 -0.00999,-1.48001l0.00198,0zm1.43799,-0.366l12.31404,0c-0.07702,-3.923 -2.55303,-6.70599 -5.85503,-6.73199c-3.676,-0.05001 -6.306,2.67199 -6.46797,6.715l0.00896,0.01699z"/>
  </g>
 </g>
</svg>