<svg width="50.00000000000001" height="50.00000000000001" xmlns="http://www.w3.org/2000/svg">

 <g>
  <title>background</title>
  <rect fill="none" id="canvas_background" height="402" width="582" y="-1" x="-1"/>
 </g>
 <g>
  <title>Layer 1</title>
  <polygon stroke="null" id="svg_1" points="15.32555103302002,16.179576873779297 16.951078414916992,16.179576873779297 16.951078414916992,17.7676944732666 18.8475284576416,17.7676944732666 18.8475284576416,12.88117790222168 16.951078414916992,12.88117790222168 16.951078414916992,14.4692964553833 15.32555103302002,14.4692964553833 15.32555103302002,12.88117790222168 13.429102897644043,12.88117790222168 13.429102897644043,17.7676944732666 15.32555103302002,17.7676944732666 " fill="#F16529"/>
  <polygon stroke="null" id="svg_2" points="21.20806121826172,17.7676944732666 23.16216468811035,17.7676944732666 23.16216468811035,14.4692964553833 24.96595573425293,14.4692964553833 24.96595573425293,12.88117790222168 19.40427017211914,12.88117790222168 19.40427017211914,14.4692964553833 21.20806121826172,14.4692964553833 " fill="#F16529"/>
  <polygon stroke="null" id="svg_3" points="27.347326278686523,15.324432373046875 28.542190551757812,17.156879425048828 28.542190551757812,17.156879425048828 29.7370548248291,15.324432373046875 29.7370548248291,17.7676944732666 31.595727920532227,17.7676944732666 31.595727920532227,12.88117790222168 29.7370548248291,12.88117790222168 28.542190551757812,14.591458320617676 27.347326278686523,12.88117790222168 25.488651275634766,12.88117790222168 25.488651275634766,17.7676944732666 27.347326278686523,17.7676944732666 " fill="#F16529"/>
  <polygon stroke="null" id="svg_4" points="36.748199462890625,16.195091247558594 34.23569869995117,16.195091247558594 34.23569869995117,12.83685302734375 32.3843879699707,12.83685302734375 32.3843879699707,17.81201934814453 36.748199462890625,17.81201934814453 " fill="#F16529"/>
  <path stroke="null" id="svg_5" fill="#F16529" d="m13.91135,19.989322l2.016118,20.13093l9.072532,1.830085l9.072532,-1.830085l2.016118,-20.13093l-22.177302,0zm17.641035,6.405296l-6.552385,0l-4.032237,0l0.50403,1.830085l3.528207,0l6.048355,0l-1.008059,8.23538l-5.040296,1.830085l-5.040296,-1.830085l-0.806447,-3.660169l2.822566,0l0.50403,1.830085l2.520148,0.915042l2.520148,-0.915042l0.50403,-3.660169l-3.024177,0l-6.048355,0l-1.008059,-7.320338l7.056414,0l7.056414,0l-0.50403,2.745127z"/>
  <path stroke="null" id="svg_6" fill="#F16529" d="m24.999999,0.157808c-13.791279,0 -24.886518,11.075477 -24.886518,24.842191s11.095239,24.842191 24.886518,24.842191s24.886518,-11.075477 24.886518,-24.842191s-11.095239,-24.842191 -24.886518,-24.842191zm0,44.508926c-10.887852,0 -19.701827,-8.798276 -19.701827,-19.666735s8.813975,-19.666735 19.701827,-19.666735s19.701827,8.798276 19.701827,19.666735s-8.813975,19.666735 -19.701827,19.666735z"/>
 </g>
</svg>