<svg width="512" height="512" xmlns="http://www.w3.org/2000/svg">

 <g>
  <title>background</title>
  <rect fill="none" id="canvas_background" height="402" width="582" y="-1" x="-1"/>
 </g>
 <g>
  <title>Layer 1</title>
  <circle r="256" id="ellipse" fill="#6CC24A" cy="256" cx="256"/>
  <path stroke="null" id="svg_1" fill="#FFFFFF" d="m142.409009,239.889557c0,-1.565915 -0.9204,-2.847118 -2.301001,-3.558898l-37.122818,-19.787473c-0.6136,-0.284712 -1.380601,-0.569424 -1.994201,-0.569424c0,0 -0.3068,0 -0.4602,0c-0.767,0 -1.380601,0.142356 -1.994201,0.569424l-37.122818,19.787473c-1.380601,0.71178 -2.301001,2.135339 -2.301001,3.558898l0.1534,53.241114c0,0.71178 0.4602,1.423559 1.073801,1.850627c0.6136,0.427068 1.534001,0.427068 2.147601,0l22.089611,-11.673185c1.380601,-0.71178 2.301001,-2.135339 2.301001,-3.558898l0,-24.912286c0,-1.423559 0.9204,-2.847118 2.301001,-3.558898l9.357405,-4.982457c0.767,-0.427068 1.534001,-0.569424 2.301001,-0.569424c0.767,0 1.534001,0.142356 2.301001,0.569424l9.357405,4.982457c1.380601,0.71178 2.301001,2.135339 2.301001,3.558898l0,24.76993c0,1.423559 0.9204,2.847118 2.301001,3.558898l22.089611,11.673185c0.6136,0.427068 1.534001,0.427068 2.301001,0c0.6136,-0.427068 1.073801,-0.996491 1.073801,-1.850627l-0.1534,-53.098758z"/>
  <path stroke="null" id="svg_2" fill="#FFFFFF" d="m281.468286,177.695573c-0.642105,-0.384 -1.28421,-0.256 -1.926315,0c-0.513684,0.384 -0.898947,0.896 -0.898947,1.664l0,47.48801c0,0.512 -0.256842,0.896 -0.642105,1.152c-0.385263,0.256 -0.898947,0.256 -1.28421,0l-7.833683,-4.480001c-1.155789,-0.64 -2.568421,-0.64 -3.72421,0l-31.07789,17.920004c-1.155789,0.64 -1.926315,1.92 -1.926315,3.200001l0,35.712007c0,1.28 0.770526,2.560001 1.926315,3.200001l31.07789,17.920004c1.155789,0.64 2.568421,0.64 3.72421,0l31.07789,-17.920004c1.155789,-0.64 1.926315,-1.92 1.926315,-3.200001l0,-89.088018c0,-1.408 -0.770526,-2.560001 -1.926315,-3.200001l-18.492629,-10.368002zm-2.825263,90.880019c0,0.384 -0.128421,0.64 -0.513684,0.768l-10.658946,6.144001c-0.256842,0.128 -0.642105,0.128 -0.898947,0l-10.658946,-6.144001c-0.256842,-0.128 -0.513684,-0.512 -0.513684,-0.768l0,-12.288003c0,-0.384 0.128421,-0.64 0.513684,-0.768l10.658946,-6.144001c0.256842,-0.128 0.642105,-0.128 0.898947,0l10.658946,6.144001c0.256842,0.128 0.513684,0.512 0.513684,0.768l0,12.288003l0,0z"/>
  <path stroke="null" id="svg_3" fill="#FFFFFF" d="m379.271404,254.357182c1.186939,-0.677565 1.978232,-2.032695 1.978232,-3.387825l0,-9.214885c0,-1.35513 -0.791293,-2.71026 -1.978232,-3.387825l-31.651706,-18.836308c-1.186939,-0.677565 -2.637642,-0.677565 -3.824581,0l-31.91547,18.971821c-1.186939,0.677565 -1.978232,2.032695 -1.978232,3.387825l0,37.808129c0,1.35513 0.791293,2.71026 1.978232,3.387825l31.651706,18.565282c1.186939,0.677565 2.637642,0.677565 3.824581,0l19.122906,-10.976554c0.659411,-0.406539 0.923175,-0.948591 1.055057,-1.761669c0,-0.677565 -0.395646,-1.35513 -0.923175,-1.761669l-32.047352,-18.971821c-0.659411,-0.406539 -0.923175,-0.948591 -0.923175,-1.761669l0,-11.654119c0,-0.677565 0.395646,-1.35513 0.923175,-1.761669l10.02304,-5.962572c0.527528,-0.406539 1.318821,-0.406539 1.978232,0l10.02304,5.962572c0.659411,0.406539 0.923175,0.948591 0.923175,1.761669l0,9.350398c0,0.677565 0.395646,1.35513 0.923175,1.761669c0.659411,0.406539 1.318821,0.406539 1.978232,0l18.859141,-11.518606z"/>
  <path stroke="null" id="svg_4" fill="#FFFFFF" d="m185.447924,220.237707c1.185882,-0.676988 2.635294,-0.676988 3.821176,0l31.887054,18.820268c1.185882,0.676988 1.97647,2.030964 1.97647,3.38494l0,37.775934c0,1.353976 -0.790588,2.707952 -1.97647,3.38494l-31.887054,18.955666c-1.185882,0.676988 -2.635294,0.676988 -3.821176,0l-31.887054,-18.955666c-1.185882,-0.676988 -1.97647,-2.030964 -1.97647,-3.38494l0,-37.775934c0,-1.353976 0.790588,-2.707952 1.97647,-3.38494l31.887054,-18.820268z"/>
  <path stroke="null" id="svg_5" fill="#FFFFFF" d="m425.253406,302.284395c-1.076287,0 -2.287111,-0.264114 -3.228862,-0.792343l-10.224731,-5.942574c-1.479895,-0.792343 -0.807216,-1.188515 -0.269072,-1.320572c2.018039,-0.660286 2.421647,-0.792343 4.574222,-2.112915c0.269072,-0.132057 0.538144,-0.132057 0.807216,0l7.803084,4.622002c0.269072,0.132057 0.67268,0.132057 0.941752,0l30.674193,-17.431549c0.269072,-0.132057 0.403608,-0.528229 0.403608,-0.792343l0,-34.731041c0,-0.396172 -0.134536,-0.660286 -0.538144,-0.792343l-30.405121,-17.299492c-0.269072,-0.132057 -0.67268,-0.132057 -0.941752,0l-30.674193,17.299492c-0.269072,0.132057 -0.538144,0.528229 -0.538144,0.792343l0,34.731041c0,0.396172 0.134536,0.660286 0.538144,0.792343l8.341228,4.754059c4.574222,2.244972 7.399476,-0.396172 7.399476,-3.037315l0,-34.334869c0,-0.528229 0.403608,-0.9244 0.941752,-0.9244l3.901542,0c0.538144,0 0.941752,0.396172 0.941752,0.9244l0,34.334869c0,5.942574 -3.363398,9.37606 -9.013907,9.37606c-1.748967,0 -3.228862,0 -7.130404,-1.848801l-8.072156,-4.489944c-2.018039,-1.188515 -3.228862,-3.169373 -3.228862,-5.546402l0,-34.731041c0,-2.244972 1.210823,-4.357887 3.228862,-5.546402l30.674193,-17.431549c1.883503,-1.056458 4.574222,-1.056458 6.457725,0l30.674193,17.431549c2.018039,1.188515 3.228862,3.169373 3.228862,5.546402l0,34.731041c0,2.244972 -1.210823,4.357887 -3.228862,5.546402l-30.808729,17.431549c-0.941752,0.528229 -2.018039,0.792343 -3.228862,0.792343z"/>
  <path stroke="null" id="svg_6" fill="#FFFFFF" d="m431.057274,276.014187c-10.775898,0 -13.038836,-6.091387 -13.038836,-11.123403c0,-0.529686 0.323277,-0.92695 0.754313,-0.92695l3.12501,0c0.323277,0 0.646554,0.264843 0.754313,0.794529c0.431036,3.972644 1.939662,5.958966 8.4052,5.958966c5.172431,0 7.32761,-1.456636 7.32761,-4.767173c0,-1.986322 -0.646554,-3.442958 -8.620718,-4.369908c-6.681057,-0.794529 -10.883657,-2.648429 -10.883657,-9.269502c0,-6.091387 4.2026,-9.666767 11.206934,-9.666767c7.866405,0 11.745728,3.310537 12.284523,10.593717c0,0.264843 0,0.529686 -0.215518,0.662107c-0.107759,0.132421 -0.323277,0.264843 -0.538795,0.264843l-3.232769,0c-0.323277,0 -0.646554,-0.264843 -0.646554,-0.662107c-0.754313,-4.237487 -2.586215,-5.561701 -7.650887,-5.561701c-5.603467,0 -6.35778,2.383586 -6.35778,4.237487c0,2.251165 0.754313,2.780851 8.4052,4.105065c7.543128,1.191793 11.099175,2.913272 11.099175,9.534345c0,6.35623 -4.418118,10.196453 -12.176764,10.196453z"/>
  <path id="svg_7" fill="#FFFFFF" d="m324.9,267.4c0.2,-0.1 0.4,-0.1 0.6,0l4.6,2.7c0.2,0.1 0.3,0.3 0.3,0.5l0,5.4c0,0.2 -0.1,0.4 -0.3,0.5l-4.6,2.7c-0.2,0.1 -0.4,0.1 -0.6,0l-4.6,-2.7c-0.2,-0.1 -0.3,-0.3 -0.3,-0.5l0,-5.4c0,-0.2 0.1,-0.4 0.3,-0.5l4.6,-2.7z"/>
  <path stroke="null" id="svg_9" fill="#FFFFFF" d="m485.482264,233.713478c0,4.628239 -4.063188,8.485104 -8.939013,8.485104c-4.875825,0 -8.939013,-3.856866 -8.939013,-8.485104c0,-4.821082 4.063188,-8.485104 8.939013,-8.485104c4.875825,0 8.939013,3.856866 8.939013,8.485104zm-16.45591,0c0,3.856866 3.453709,7.135201 7.516897,7.135201c4.063188,0 7.516897,-3.278336 7.516897,-7.135201c0,-3.856866 -3.453709,-7.135201 -7.516897,-7.135201c-4.063188,0.192843 -7.516897,3.278336 -7.516897,7.135201zm4.266347,-4.628239l3.453709,0c1.218956,0 3.453709,0 3.453709,2.506963c0,1.73559 -1.218956,2.121276 -1.828434,2.314119c1.422116,0 1.422116,0.964216 1.625275,2.121276c0,0.771373 0.203159,2.121276 0.609478,2.506963l-2.031594,0c0,-0.385687 -0.406319,-2.892649 -0.406319,-3.085493c-0.203159,-0.57853 -0.406319,-0.771373 -1.015797,-0.771373l-1.828434,0l0,3.856866l-2.031594,0l0,-9.449321l0,0zm1.828434,4.049709l1.625275,0c1.218956,0 1.422116,-0.771373 1.422116,-1.349903c0,-1.349903 -1.015797,-1.349903 -1.422116,-1.349903l-1.625275,0l0,2.699806c0,0 0,0 0,0z"/>
 </g>
</svg>