<svg width="512" height="512" xmlns="http://www.w3.org/2000/svg">

 <g>
  <title>background</title>
  <rect fill="none" id="canvas_background" height="402" width="582" y="-1" x="-1"/>
 </g>
 <g>
  <title>Layer 1</title>
  <polygon stroke="null" id="svg_2" fill-rule="evenodd" clip-rule="evenodd" fill="#379ad6" points="95.43317866325378,139.72112846374512 126.21718287467957,473.2301387786865 259.6231734752655,509.152135848999 393.02618861198425,473.2301387786865 423.815190076828,139.72112846374512 "/>
  <polygon id="svg_4" fill-rule="evenodd" clip-rule="evenodd" fill="#379AD6" points="259.6211745738983,166.73512840270996 259.6211745738983,480.50311851501465 259.92218470573425,480.5841426849365 367.88116908073425,451.5141353607178 392.7991683483124,166.73512840270996 "/>
  <polygon id="svg_6" fill-rule="evenodd" clip-rule="evenodd" fill="#E8E8E7" points="259.24718165397644,395.1881160736084 259.1751754283905,395.2091426849365 214.60518336296082,383.8481197357178 211.9041793346405,351.1301326751709 170.48517298698425,351.1301326751709 175.88718104362488,414.2951412200928 259.62518763542175,439.288122177124 259.62518763542175,395.08112144470215 "/>
  <polygon id="svg_8" fill-rule="evenodd" clip-rule="evenodd" fill="#FBFBFA" points="259.62518763542175,289.433141708374 259.62518763542175,329.5621395111084 259.7441756725311,329.5621395111084 309.2461898326874,329.6161251068115 306.0691878795624,382.07013511657715 259.7441756725311,395.121129989624 259.62518763542175,395.1551265716553 259.62518763542175,439.24213218688965 259.7441756725311,439.27814292907715 259.7771956920624,439.288122177124 343.7381942272186,414.7651424407959 354.63116908073425,289.433141708374 "/>
  <polygon id="svg_10" fill-rule="evenodd" clip-rule="evenodd" fill="#E5E4E2" points="164.62617945671082,289.433141708374 167.77818751335144,329.5201168060303 167.78317713737488,329.5821285247803 259.62518763542175,329.5881404876709 259.62518763542175,289.433141708374 "/>
  <polygon id="svg_12" fill-rule="evenodd" clip-rule="evenodd" fill="#EEEEEE" points="164.63217616081238,289.433141708374 259.3921859264374,289.433141708374 259.62518763542175,289.3321285247803 259.62518763542175,249.26813316345215 "/>
  <polygon id="svg_14" fill-rule="evenodd" clip-rule="evenodd" fill="#FFFFFF" points="265.17718958854675,247.31813621520996 259.62518763542175,249.64313316345215 259.62518763542175,289.42413902282715 357.57916712760925,247.31813621520996 "/>
  <polygon id="svg_16" fill-rule="evenodd" clip-rule="evenodd" fill="#E7E7E6" points="155.82017970085144,207.16612815856934 160.784184217453,247.31813621520996 259.62518763542175,247.31813621520996 259.62518763542175,207.16612815856934 "/>
  <path id="svg_18" fill-rule="evenodd" clip-rule="evenodd" fill="#F8F8F7" d="m259.625181,247.318129l101.842,-40.152l-101.842,0l0,40.152zm0.027,0l97.76,0l4.056,-40.152l-101.816,40.152z"/>
  <path stroke="null" id="svg_20" fill-rule="evenodd" clip-rule="evenodd" fill="#379ad6" d="m98.765029,111.449171l83.673641,0l0,-32.401021l-47.81233,0l0,-32.446789l47.81233,0l0,-35.505124l-83.673641,0l0,100.352934zm119.432595,-64.846175c11.194897,11.084216 17.032554,16.388489 33.22479,32.42227c-9.463081,0 -33.22479,0.034327 -33.22479,0.031057l0,32.392848l83.680245,0l0,-32.401021l-33.424551,-32.446789l33.424551,0l0,-35.505124l-83.680245,0c0,0 0,17.820398 0,35.506759zm202.285729,-35.506759l-83.685198,0c0,0 0,17.820398 0,35.506759c11.194897,11.084216 17.035856,16.388489 33.228092,32.42227c-9.459779,0 -33.228092,0.034327 -33.228092,0.031057l0,32.392848l83.685198,0l0,-32.401021l-33.426202,-32.446789l33.426202,0l0,-35.505124z"/>
 </g>
</svg>