<svg width="67" height="67" xmlns="http://www.w3.org/2000/svg">
 <g>
  <title>background</title>
  <rect x="-1" y="-1" width="8.562864" height="8.562864" id="canvas_background" fill="none"/>
 </g>

 <g>
  <title>Layer 1</title>
  <path d="m28.75333,51.757443l7.555469,0l0,-18.31503l5.04034,0l0.667713,-6.311116l-5.708054,0l0.007842,-3.160047c0,-1.64511 0.156845,-2.528262 2.514008,-2.528262l3.150353,0l0,-6.312238l-5.041461,0c-6.055354,0 -8.186212,3.062418 -8.186212,8.21096l0,3.789587l-3.774374,0l0,6.312238l3.774374,0l0,18.313908l0.000002,0zm-28.865163,-51.978057l67.219476,0l0,67.330544l-67.219476,0l0,-67.330544z" fill="#d0e9e9" clip-rule="evenodd" fill-rule="evenodd" id="svg_1" stroke="null"/>
 </g>
</svg>