<svg width="1792" height="1792" xmlns="http://www.w3.org/2000/svg">

 <g>
  <title>background</title>
  <rect fill="none" id="canvas_background" height="402" width="582" y="-1" x="-1"/>
 </g>
 <g>
  <title>Layer 1</title>
  <path fill="#ededed" stroke="null" id="svg_1" d="m621.727209,1415.181616q0,-84.250331 -145.463207,-84.250331q-139.292041,0 -139.292041,87.620344q0,85.092834 151.634373,85.092834q133.120874,0 133.120874,-88.462847zm-52.014116,-636.089998q0,-51.392702 -26.447856,-85.935338t-78.461972,-34.542636q-109.317804,0 -109.317804,122.16298q0,113.737947 109.317804,113.737947q104.909828,0 104.909828,-115.422953zm237.149107,-272.971072l0,170.185668q-31.737427,10.11004 -69.64602,18.535073q14.105523,36.227642 14.105523,70.770278q0,106.99792 -64.356449,182.401966t-173.674253,94.781622q-35.263808,6.740026 -52.454914,22.747589t-17.191106,48.865192q0,26.117603 19.835892,43.38892t51.132521,26.960106t69.205223,18.535073t75.817187,21.483834t69.205223,31.593874t51.132521,53.920212t19.835892,82.986576q0,256.121006 -320.019056,256.121006q-60.830068,0 -114.607375,-10.531291t-102.265043,-34.542636t-77.13958,-69.085271t-28.651844,-107.419172q0,-139.013046 160.450325,-189.563245l0,-3.370013q-59.066878,-34.542636 -59.066878,-106.155417q0,-91.832861 55.540497,-115.422953l0,-3.370013q-63.474854,-20.220079 -105.350626,-91.411609t-41.875772,-139.434298q0,-117.10796 83.751543,-195.039516t207.174871,-77.931556q84.633139,0 156.923945,39.597656q86.396329,0 192.187752,-39.597656zm280.347272,742.245415l-195.714133,0q3.526381,-37.912649 3.526381,-112.895443l0,-513.084515q0,-79.195311 -3.526381,-107.840424l195.714133,0q-3.526381,27.802609 -3.526381,104.47041l0,516.454529q0,74.982795 3.526381,112.895443zm529.838712,-187.035735l0,165.130649q-62.593259,32.857629 -153.397564,32.857629q-54.658902,0 -94.330686,-16.850066t-61.711664,-42.125165t-34.82301,-65.715258t-16.309511,-77.510304t-3.526381,-86.777841l0,-295.718662l1.76319,0l0,-3.370013q-6.171166,0 -16.750309,-0.842503t-15.868713,-0.842503q-18.513499,0 -52.014116,5.05502l0,-160.075629l84.633139,0l0,-64.030252q0,-45.495179 -5.289571,-74.982795l200.122109,0q-5.289571,34.542636 -5.289571,139.013046l150.752778,0l0,160.075629q-13.223928,0 -38.349391,-1.685007t-37.467796,-1.685007l-74.935592,0l0,307.513708q0,110.367934 76.698782,110.367934q53.777307,0 96.093876,-27.802609zm-507.798832,-797.850634q0,48.865192 -34.382213,85.514086t-84.633139,36.648894q-51.132521,0 -86.396329,-36.648894t-35.263808,-85.514086q0,-49.707695 34.82301,-86.777841t86.837127,-37.070146q51.132521,0 85.073936,37.491397t33.941415,86.356589z"/>
 </g>
</svg>