<svg width="32" height="32" xmlns="http://www.w3.org/2000/svg">

 <g>
  <title>background</title>
  <rect fill="none" id="canvas_background" height="402" width="582" y="-1" x="-1"/>
 </g>
 <g>
  <title>Layer 1</title>
  <g id="Line">
   <g id="svg_1">
    <path id="svg_2" fill="#ffffff" d="m30,2l0,28l-28,0l0,-28l28,0m1,-1l-30,0l0,30l30,0l0,-30l0,0z"/>
    <path id="svg_3" fill="#ffffff" d="m30,2l0,28l-28,0l0,-28l28,0m1,-1l-30,0l0,30l30,0l0,-30l0,0z"/>
   </g>
   <path id="Cat_5_" fill="#ffffff" d="m19.246,24.945l-2.383,0l-2.385,0c0,0 0.007,-1.415 0,-2.385c-3.264,0.703 -4.175,-1.789 -4.175,-1.789c-0.596,-1.193 -1.193,-1.789 -1.193,-1.789c-1.193,-0.708 0,-0.596 0,-0.596c1.193,0 1.789,1.193 1.789,1.193c1.047,1.777 2.909,1.491 3.578,1.193c0,-0.596 0.261,-1.498 0.596,-1.789c-2.605,-0.293 -4.773,-1.789 -4.773,-4.771s0.599,-3.578 1.195,-4.175c-0.12,-0.294 -0.62,-1.381 0.018,-2.982c0,0 1.172,0 2.365,1.789c0.591,-0.591 2.385,-0.596 2.982,-0.596c0.595,0 2.39,0.005 2.981,0.596c1.193,-1.789 2.368,-1.789 2.368,-1.789c0.638,1.601 0.139,2.688 0.018,2.982c0.596,0.596 1.193,1.193 1.193,4.175s-2.165,4.477 -4.771,4.771c0.336,0.291 0.596,1.317 0.596,1.789l0.001,4.173l0,0z"/>
  </g>
 </g>
</svg>