<svg width="67" height="67" xmlns="http://www.w3.org/2000/svg">
 <g>
  <title>background</title>
  <rect x="-1" y="-1" width="168.020312" height="168.020312" id="canvas_background" fill="none"/>
 </g>

 <g>
  <title>Layer 1</title>
  <path d="m52.312307,49.309808l0,-13.126503c0,-7.032856 -3.747959,-10.305515 -8.744493,-10.305515c-4.032133,0 -5.838985,2.222495 -6.8459,3.781491l0,-3.243519l-7.59661,0c0.100691,2.148523 0,22.894047 0,22.894047l7.59661,0l0,-12.785788c0,-0.682551 0.049227,-1.366223 0.25061,-1.854881c0.548209,-1.367344 1.797902,-2.782881 3.89564,-2.782881c2.749995,0 3.848651,2.099209 3.848651,5.175734l0,12.248937l7.595491,0l0,-0.001121l0.000001,-0.000001zm-31.189735,-26.018765c2.648185,0 4.298406,-1.759615 4.298406,-3.957452c-0.049227,-2.24491 -1.650221,-3.95409 -4.24806,-3.95409s-4.297287,1.708059 -4.297287,3.95409c0,2.197837 1.649102,3.957452 4.198833,3.957452l0.048108,0zm3.798305,26.018765l0,-22.894047l-7.595491,0l0,22.894047l7.595491,0zm-25.009518,-49.467595l67.127631,0l0,67.24643l-67.127631,0l0,-67.24643z" fill="#d0e9e9" clip-rule="evenodd" fill-rule="evenodd" id="svg_1" stroke="null"/>
 </g>
</svg>