<svg width="67" height="67" xmlns="http://www.w3.org/2000/svg">

 <g>
  <title>background</title>
  <rect fill="none" id="canvas_background" height="402" width="582" y="-1" x="-1"/>
 </g>
 <g>
  <title>Layer 1</title>
  <path stroke="null" id="svg_1" fill-rule="evenodd" clip-rule="evenodd" fill="#d0e9e9" d="m38.178011,20.369378c-2.942983,1.067371 -4.802714,3.820361 -4.591457,6.833193l0.070793,1.162572l-1.177642,-0.142242c-4.284686,-0.545446 -8.02887,-2.395706 -11.20783,-5.504859l-1.554084,-1.542257l-0.400039,1.139052c-0.847273,2.539067 -0.305648,5.220376 1.459692,7.023595c0.941665,0.996811 0.729284,1.139052 -0.894469,0.545446c-0.565223,-0.189282 -1.059654,-0.331524 -1.106849,-0.260963c-0.164061,0.166882 0.400039,2.325145 0.847273,3.179714c0.612419,1.187213 1.859731,2.348665 3.226156,3.037473l1.154045,0.545446l-1.365301,0.02352c-1.318106,0 -1.365301,0.02352 -1.223714,0.523046c0.470832,1.542257 2.330563,3.179714 4.402675,3.892042l1.459692,0.497285l-1.27091,0.759368c-1.883329,1.093132 -4.097027,1.709138 -6.310725,1.755059c-1.060777,0.02352 -1.931648,0.118721 -1.931648,0.190402c0,0.236323 2.873313,1.564657 4.544262,2.087702c5.015094,1.542257 10.972976,0.876969 15.446444,-1.756179c3.178961,-1.8749 6.356797,-5.60006 7.841211,-9.207619c0.801201,-1.920821 1.601279,-5.433178 1.601279,-7.116556c0,-1.092012 0.070793,-1.234253 1.388899,-2.539067c0.777604,-0.759368 1.506888,-1.589297 1.648475,-1.82674c0.235978,-0.451365 0.211256,-0.451365 -0.98886,-0.048161c-2.001318,0.712328 -2.284492,0.617127 -1.294508,-0.450245c0.729284,-0.759368 1.601279,-2.135863 1.601279,-2.539067c0,-0.070561 -0.352843,0.047041 -0.754006,0.260963c-0.423637,0.237443 -1.365301,0.593606 -2.072111,0.806409l-1.27091,0.404324l-1.154045,-0.784008c-0.636017,-0.426725 -1.529362,-0.90161 -2.001318,-1.043851c-1.20124,-0.331524 -3.038497,-0.284483 -4.121749,0.095201zm-38.393618,-20.47718l67.42228,0l0,67.200722l-67.42228,0l0,-67.200722z"/>
 </g>
</svg>